<?xml version="1.0" encoding="us-ascii" standalone="no"?><svg xmlns="http://www.w3.org/2000/svg" xmlns:xlink="http://www.w3.org/1999/xlink" contentStyleType="text/css" height="720px" preserveAspectRatio="none" style="width:475px;height:720px;background:#FFFFFF;" version="1.1" viewBox="0 0 475 720" width="475px" zoomAndPan="magnify"><defs/><g><text fill="#000000" font-family="sans-serif" font-size="14" font-weight="bold" lengthAdjust="spacing" textLength="327" x="72.5" y="32.9951">UC09 &#8212; Bundle to&#224;n b&#7897; YAML th&#224;nh 1 file</text><rect fill="none" height="20.9531" style="stroke:none;stroke-width:1.0;" width="442" x="15" y="50.042"/><ellipse cx="148" cy="85.9951" fill="#4F46E5" rx="10" ry="10" style="stroke:#222222;stroke-width:1.0;"/><rect fill="#F8FAFC" height="47.9375" rx="12.5" ry="12.5" style="stroke:#94A3B8;stroke-width:0.5;" width="254" x="21" y="115.9951"/><text fill="#000000" font-family="sans-serif" font-size="12" lengthAdjust="spacing" textLength="49" x="31" y="137.1338">G&#7885;i l&#7879;nh</text><text fill="#000000" font-family="sans-serif" font-size="12" lengthAdjust="spacing" textLength="234" x="31" y="151.1025">redocly bundle openapi/openapi.yaml</text><rect fill="#F8FAFC" height="47.9375" rx="12.5" ry="12.5" style="stroke:#94A3B8;stroke-width:0.5;" width="170" x="63" y="340.2725"/><text fill="#000000" font-family="sans-serif" font-size="12" lengthAdjust="spacing" textLength="150" x="73" y="361.4111">Ghi nh&#7853;n l&#7895;i $ref broken</text><text fill="#000000" font-family="sans-serif" font-size="12" lengthAdjust="spacing" textLength="135" x="73" y="375.3799">B&#225;o c&#225;o l&#234;n giao di&#7879;n</text><ellipse cx="148" cy="429.4912" fill="none" rx="11" ry="11" style="stroke:#222222;stroke-width:1.0;"/><ellipse cx="148" cy="429.4912" fill="#222222" rx="6" ry="6" style="stroke:#222222;stroke-width:1.0;"/><rect fill="#F8FAFC" height="47.9375" rx="12.5" ry="12.5" style="stroke:#94A3B8;stroke-width:0.5;" width="187" x="54.5" y="482.4912"/><text fill="#000000" font-family="sans-serif" font-size="12" lengthAdjust="spacing" textLength="167" x="64.5" y="503.6299">Gi&#7843;i quy&#7871;t v&#224; n&#7897;i tuy&#7871;n h&#243;a</text><text fill="#000000" font-family="sans-serif" font-size="12" lengthAdjust="spacing" textLength="136" x="64.5" y="517.5986">c&#225;c tham chi&#7871;u n&#7897;i b&#7897;</text><rect fill="#F8FAFC" height="47.9375" rx="12.5" ry="12.5" style="stroke:#94A3B8;stroke-width:0.5;" width="185" x="55.5" y="550.4287"/><text fill="#000000" font-family="sans-serif" font-size="12" lengthAdjust="spacing" textLength="88" x="65.5" y="571.5674">Ghi k&#7871;t qu&#7843; ra</text><text fill="#000000" font-family="sans-serif" font-size="12" lengthAdjust="spacing" textLength="165" x="65.5" y="585.5361">dist/openapi-bundled.yaml</text><rect fill="#F8FAFC" height="47.9375" rx="12.5" ry="12.5" style="stroke:#94A3B8;stroke-width:0.5;" width="161" x="67.5" y="618.3662"/><text fill="#000000" font-family="sans-serif" font-size="12" lengthAdjust="spacing" textLength="106" x="77.5" y="639.5049">Nh&#7853;n exit code 0</text><text fill="#000000" font-family="sans-serif" font-size="12" lengthAdjust="spacing" textLength="141" x="77.5" y="653.4736">Ti&#7871;p t&#7909;c sang b&#432;&#7899;c lint</text><ellipse cx="148" cy="697.3037" fill="none" rx="11" ry="11" style="stroke:#222222;stroke-width:1.0;"/><ellipse cx="148" cy="697.3037" fill="#222222" rx="6" ry="6" style="stroke:#222222;stroke-width:1.0;"/><line style="stroke:#000000;stroke-width:1.5;" x1="15" x2="15" y1="50.042" y2="708.3037"/><rect fill="#F8FAFC" height="33.9688" rx="12.5" ry="12.5" style="stroke:#94A3B8;stroke-width:0.5;" width="137" x="285" y="183.9326"/><text fill="#000000" font-family="sans-serif" font-size="12" lengthAdjust="spacing" textLength="117" x="295" y="205.0713">&#272;&#7885;c file entry point</text><rect fill="#F8FAFC" height="33.9688" rx="12.5" ry="12.5" style="stroke:#94A3B8;stroke-width:0.5;" width="136" x="285.5" y="237.9014"/><text fill="#000000" font-family="sans-serif" font-size="12" lengthAdjust="spacing" textLength="116" x="295.5" y="259.04">Duy&#7879;t to&#224;n b&#7897; $ref</text><polygon fill="#FEF9C3" points="319.5,291.8701,387.5,291.8701,399.5,303.8701,387.5,315.8701,319.5,315.8701,307.5,303.8701,319.5,291.8701" style="stroke:#94A3B8;stroke-width:0.5;"/><text fill="#000000" font-family="sans-serif" font-size="11" lengthAdjust="spacing" textLength="35" x="357.5" y="326.0806">Kh&#244;ng</text><text fill="#000000" font-family="sans-serif" font-size="11" lengthAdjust="spacing" textLength="68" x="319.5" y="307.6782">$ref h&#7907;p l&#7879;?</text><text fill="#000000" font-family="sans-serif" font-size="11" lengthAdjust="spacing" textLength="15" x="399.5" y="301.2759">C&#243;</text><line style="stroke:#000000;stroke-width:1.5;" x1="279" x2="279" y1="50.042" y2="708.3037"/><line style="stroke:#000000;stroke-width:1.5;" x1="455" x2="455" y1="50.042" y2="708.3037"/><line style="stroke:#64748B;stroke-width:1.0;" x1="148" x2="148" y1="95.9951" y2="115.9951"/><polygon fill="#64748B" points="144,105.9951,148,115.9951,152,105.9951,148,109.9951" style="stroke:#64748B;stroke-width:1.0;"/><line style="stroke:#64748B;stroke-width:1.0;" x1="148" x2="148" y1="388.21" y2="418.4912"/><polygon fill="#64748B" points="144,408.4912,148,418.4912,152,408.4912,148,412.4912" style="stroke:#64748B;stroke-width:1.0;"/><line style="stroke:#64748B;stroke-width:1.0;" x1="148" x2="148" y1="530.4287" y2="550.4287"/><polygon fill="#64748B" points="144,540.4287,148,550.4287,152,540.4287,148,544.4287" style="stroke:#64748B;stroke-width:1.0;"/><line style="stroke:#64748B;stroke-width:1.0;" x1="148" x2="148" y1="598.3662" y2="618.3662"/><polygon fill="#64748B" points="144,608.3662,148,618.3662,152,608.3662,148,612.3662" style="stroke:#64748B;stroke-width:1.0;"/><line style="stroke:#64748B;stroke-width:1.0;" x1="148" x2="148" y1="666.3037" y2="686.3037"/><polygon fill="#64748B" points="144,676.3037,148,686.3037,152,676.3037,148,680.3037" style="stroke:#64748B;stroke-width:1.0;"/><line style="stroke:#64748B;stroke-width:1.0;" x1="353.5" x2="353.5" y1="217.9014" y2="237.9014"/><polygon fill="#64748B" points="349.5,227.9014,353.5,237.9014,357.5,227.9014,353.5,231.9014" style="stroke:#64748B;stroke-width:1.0;"/><line style="stroke:#64748B;stroke-width:1.0;" x1="399.5" x2="436" y1="303.8701" y2="303.8701"/><polygon fill="#64748B" points="432,388.4912,436,398.4912,440,388.4912,436,392.4912" style="stroke:#64748B;stroke-width:1.0;"/><line style="stroke:#64748B;stroke-width:1.0;" x1="436" x2="436" y1="303.8701" y2="467.4912"/><line style="stroke:#64748B;stroke-width:1.0;" x1="436" x2="148" y1="467.4912" y2="467.4912"/><line style="stroke:#64748B;stroke-width:1.0;" x1="148" x2="148" y1="467.4912" y2="482.4912"/><polygon fill="#64748B" points="144,472.4912,148,482.4912,152,472.4912,148,476.4912" style="stroke:#64748B;stroke-width:1.0;"/><line style="stroke:#64748B;stroke-width:1.0;" x1="353.5" x2="353.5" y1="271.8701" y2="291.8701"/><polygon fill="#64748B" points="349.5,281.8701,353.5,291.8701,357.5,281.8701,353.5,285.8701" style="stroke:#64748B;stroke-width:1.0;"/><line style="stroke:#64748B;stroke-width:1.0;" x1="148" x2="148" y1="163.9326" y2="168.9326"/><line style="stroke:#64748B;stroke-width:1.0;" x1="148" x2="353.5" y1="168.9326" y2="168.9326"/><line style="stroke:#64748B;stroke-width:1.0;" x1="353.5" x2="353.5" y1="168.9326" y2="183.9326"/><polygon fill="#64748B" points="349.5,173.9326,353.5,183.9326,357.5,173.9326,353.5,177.9326" style="stroke:#64748B;stroke-width:1.0;"/><line style="stroke:#64748B;stroke-width:1.0;" x1="353.5" x2="353.5" y1="315.8701" y2="328.0713"/><line style="stroke:#64748B;stroke-width:1.0;" x1="353.5" x2="148" y1="328.0713" y2="328.0713"/><line style="stroke:#64748B;stroke-width:1.0;" x1="148" x2="148" y1="328.0713" y2="340.2725"/><polygon fill="#64748B" points="144,330.2725,148,340.2725,152,330.2725,148,334.2725" style="stroke:#64748B;stroke-width:1.0;"/><text fill="#000000" font-family="sans-serif" font-size="18" lengthAdjust="spacing" textLength="74" x="110" y="66.75">Backend</text><text fill="#000000" font-family="sans-serif" font-size="18" lengthAdjust="spacing" textLength="71" x="331.5" y="66.75">Redocly</text><!--SRC=[RP6zZjD058NxUOehGP4KmA8rkubJeDWRRy5FmK-1b6OodiIZE7Uyuyc2fHHqL4WKAo54isX5WuI4j5HniOKHxs6UX3kE2Ijj6jjZd_FTSwxpkSAC6xw0eR3gLDaYu68-Ctg9SQXJRU1Mr8k6KSZocqfjOcbQLTyRxWUzwofZzElsuu5twFM27OWZnHSQuvipHr4_tDzXU6wviQt8Yxo3qOCTej6MqqgOLJQLy3BSwyEVjsSGq2GwMrsT8qpgyXEy6Zvv33QXSmBtOQfIoTZAnP8OhrZkfZB_k2xVAqZhyXqcOpGorY8jOBA1wKmYpzIzzdwtu8jqG91d6zcA-Ry-a5yqS91eJG6PLcW7p3zQ5WIrrmFTDd9ATZM5Zdk4f2ulicRsmou5bGYTHqdr4sTT1l0_AO1_d2Z0f5v_HoV_g1eKJ8mcnHY3wei6uIvfzGrXfhY6MBbA0pBdLcTCfhc4JbXTTXanrPHHSrMlBnISKCxrbONJwXoGKYgmpHk4fBhaOoIke73qAqH2ZgjbgtADgAPBDcy09qlYWI5Bh7BxRsTtDgkCjxlRrlAVRWh9Dyg2qB64lJ6-S2Coi7NvLK3ESGQJtp_gyhE0j5ahSst-0W00]--></g></svg>