<?xml version="1.0" encoding="us-ascii" standalone="no"?><svg xmlns="http://www.w3.org/2000/svg" xmlns:xlink="http://www.w3.org/1999/xlink" contentStyleType="text/css" height="622px" preserveAspectRatio="none" style="width:610px;height:622px;background:#FFFFFF;" version="1.1" viewBox="0 0 610 622" width="610px" zoomAndPan="magnify"><defs/><g><text fill="#000000" font-family="sans-serif" font-size="14" font-weight="bold" lengthAdjust="spacing" textLength="406" x="103.25" y="27.9951">UC09 &#8212; Bundle to&#224;n b&#7897; YAML th&#224;nh 1 file (Redocly)</text><rect fill="none" height="320.2656" style="stroke:#000000;stroke-width:1.5;" width="593.5" x="10" y="250.3906"/><line style="stroke:#181818;stroke-width:0.5;stroke-dasharray:5.0,5.0;" x1="57" x2="57" y1="73.5938" y2="587.6563"/><line style="stroke:#181818;stroke-width:0.5;stroke-dasharray:5.0,5.0;" x1="329" x2="329" y1="73.5938" y2="587.6563"/><line style="stroke:#181818;stroke-width:0.5;stroke-dasharray:5.0,5.0;" x1="547.5" x2="547.5" y1="73.5938" y2="587.6563"/><rect fill="#F8FAFC" height="30.2969" rx="2.5" ry="2.5" style="stroke:#94A3B8;stroke-width:0.5;" width="75" x="20" y="42.2969"/><text fill="#000000" font-family="sans-serif" font-size="14" lengthAdjust="spacing" textLength="61" x="27" y="62.292">Backend</text><rect fill="#F8FAFC" height="30.2969" rx="2.5" ry="2.5" style="stroke:#94A3B8;stroke-width:0.5;" width="75" x="20" y="586.6563"/><text fill="#000000" font-family="sans-serif" font-size="14" lengthAdjust="spacing" textLength="61" x="27" y="606.6514">Backend</text><rect fill="#F8FAFC" height="30.2969" rx="2.5" ry="2.5" style="stroke:#94A3B8;stroke-width:0.5;" width="93" x="283" y="42.2969"/><text fill="#000000" font-family="sans-serif" font-size="14" lengthAdjust="spacing" textLength="79" x="290" y="62.292">Redocly CLI</text><rect fill="#F8FAFC" height="30.2969" rx="2.5" ry="2.5" style="stroke:#94A3B8;stroke-width:0.5;" width="93" x="283" y="586.6563"/><text fill="#000000" font-family="sans-serif" font-size="14" lengthAdjust="spacing" textLength="79" x="290" y="606.6514">Redocly CLI</text><rect fill="#F8FAFC" height="30.2969" rx="2.5" ry="2.5" style="stroke:#94A3B8;stroke-width:0.5;" width="92" x="501.5" y="42.2969"/><text fill="#000000" font-family="sans-serif" font-size="14" lengthAdjust="spacing" textLength="78" x="508.5" y="62.292">File System</text><rect fill="#F8FAFC" height="30.2969" rx="2.5" ry="2.5" style="stroke:#94A3B8;stroke-width:0.5;" width="92" x="501.5" y="586.6563"/><text fill="#000000" font-family="sans-serif" font-size="14" lengthAdjust="spacing" textLength="78" x="508.5" y="606.6514">File System</text><polygon fill="#64748B" points="317.5,130.9922,327.5,134.9922,317.5,138.9922,321.5,134.9922" style="stroke:#64748B;stroke-width:1.0;"/><line style="stroke:#64748B;stroke-width:1.0;" x1="57.5" x2="323.5" y1="134.9922" y2="134.9922"/><text fill="#000000" font-family="sans-serif" font-size="13" lengthAdjust="spacing" textLength="103" x="64.5" y="99.6606">subprocess.run(</text><text fill="#000000" font-family="sans-serif" font-size="13" lengthAdjust="spacing" textLength="248" x="64.5" y="114.7935">"redocly bundle openapi/openapi.yaml"</text><text fill="#000000" font-family="sans-serif" font-size="13" lengthAdjust="spacing" textLength="5" x="64.5" y="129.9263">)</text><polygon fill="#64748B" points="535.5,160.125,545.5,164.125,535.5,168.125,539.5,164.125" style="stroke:#64748B;stroke-width:1.0;"/><line style="stroke:#64748B;stroke-width:1.0;" x1="329.5" x2="541.5" y1="164.125" y2="164.125"/><text fill="#000000" font-family="sans-serif" font-size="13" lengthAdjust="spacing" textLength="120" x="336.5" y="159.0591">&#272;&#7885;c file entry point</text><polygon fill="#64748B" points="340.5,189.2578,330.5,193.2578,340.5,197.2578,336.5,193.2578" style="stroke:#64748B;stroke-width:1.0;"/><line style="stroke:#64748B;stroke-width:1.0;stroke-dasharray:2.0,2.0;" x1="334.5" x2="546.5" y1="193.2578" y2="193.2578"/><text fill="#000000" font-family="sans-serif" font-size="13" lengthAdjust="spacing" textLength="86" x="346.5" y="188.1919">openapi.yaml</text><line style="stroke:#64748B;stroke-width:1.0;" x1="329.5" x2="371.5" y1="222.3906" y2="222.3906"/><line style="stroke:#64748B;stroke-width:1.0;" x1="371.5" x2="371.5" y1="222.3906" y2="235.3906"/><line style="stroke:#64748B;stroke-width:1.0;" x1="330.5" x2="371.5" y1="235.3906" y2="235.3906"/><polygon fill="#64748B" points="340.5,231.3906,330.5,235.3906,340.5,239.3906,336.5,235.3906" style="stroke:#64748B;stroke-width:1.0;"/><text fill="#000000" font-family="sans-serif" font-size="13" lengthAdjust="spacing" textLength="120" x="336.5" y="217.3247">Duy&#7879;t to&#224;n b&#7897; $ref</text><path d="M10,250.3906 L74,250.3906 L74,257.5234 L64,267.5234 L10,267.5234 L10,250.3906 " fill="#EEEEEE" style="stroke:#000000;stroke-width:1.5;"/><rect fill="none" height="320.2656" style="stroke:#000000;stroke-width:1.5;" width="593.5" x="10" y="250.3906"/><text fill="#000000" font-family="sans-serif" font-size="13" font-weight="bold" lengthAdjust="spacing" textLength="19" x="25" y="263.4575">alt</text><text fill="#000000" font-family="sans-serif" font-size="11" font-weight="bold" lengthAdjust="spacing" textLength="200" x="89" y="262.6011">[$ref tr&#7887; &#273;&#7871;n file kh&#244;ng t&#7891;n t&#7841;i]</text><polygon fill="#64748B" points="68.5,299.7891,58.5,303.7891,68.5,307.7891,64.5,303.7891" style="stroke:#64748B;stroke-width:1.0;"/><line style="stroke:#64748B;stroke-width:1.0;stroke-dasharray:2.0,2.0;" x1="62.5" x2="328.5" y1="303.7891" y2="303.7891"/><text fill="#000000" font-family="sans-serif" font-size="13" lengthAdjust="spacing" textLength="35" x="74.5" y="283.5903">exit 1</text><text fill="#000000" font-family="sans-serif" font-size="13" lengthAdjust="spacing" textLength="146" x="74.5" y="298.7231">{ error: "$ref broken" }</text><line style="stroke:#64748B;stroke-width:1.0;" x1="57.5" x2="99.5" y1="348.0547" y2="348.0547"/><line style="stroke:#64748B;stroke-width:1.0;" x1="99.5" x2="99.5" y1="348.0547" y2="361.0547"/><line style="stroke:#64748B;stroke-width:1.0;" x1="58.5" x2="99.5" y1="361.0547" y2="361.0547"/><polygon fill="#64748B" points="68.5,357.0547,58.5,361.0547,68.5,365.0547,64.5,361.0547" style="stroke:#64748B;stroke-width:1.0;"/><text fill="#000000" font-family="sans-serif" font-size="13" lengthAdjust="spacing" textLength="75" x="64.5" y="327.856">Ghi nh&#7853;n l&#7895;i</text><text fill="#000000" font-family="sans-serif" font-size="13" lengthAdjust="spacing" textLength="137" x="64.5" y="342.9888">B&#225;o c&#225;o l&#234;n giao di&#7879;n</text><line style="stroke:#000000;stroke-width:1.0;stroke-dasharray:2.0,2.0;" x1="10" x2="603.5" y1="370.0547" y2="370.0547"/><text fill="#000000" font-family="sans-serif" font-size="11" font-weight="bold" lengthAdjust="spacing" textLength="124" x="15" y="380.2651">[T&#7845;t c&#7843; $ref h&#7907;p l&#7879;]</text><line style="stroke:#64748B;stroke-width:1.0;" x1="329.5" x2="371.5" y1="420.125" y2="420.125"/><line style="stroke:#64748B;stroke-width:1.0;" x1="371.5" x2="371.5" y1="420.125" y2="433.125"/><line style="stroke:#64748B;stroke-width:1.0;" x1="330.5" x2="371.5" y1="433.125" y2="433.125"/><polygon fill="#64748B" points="340.5,429.125,330.5,433.125,340.5,437.125,336.5,433.125" style="stroke:#64748B;stroke-width:1.0;"/><text fill="#000000" font-family="sans-serif" font-size="13" lengthAdjust="spacing" textLength="174" x="336.5" y="399.9263">Gi&#7843;i quy&#7871;t v&#224; n&#7897;i tuy&#7871;n h&#243;a</text><text fill="#000000" font-family="sans-serif" font-size="13" lengthAdjust="spacing" textLength="141" x="336.5" y="415.0591">c&#225;c tham chi&#7871;u n&#7897;i b&#7897;</text><polygon fill="#64748B" points="535.5,458.2578,545.5,462.2578,535.5,466.2578,539.5,462.2578" style="stroke:#64748B;stroke-width:1.0;"/><line style="stroke:#64748B;stroke-width:1.0;" x1="329.5" x2="541.5" y1="462.2578" y2="462.2578"/><text fill="#000000" font-family="sans-serif" font-size="13" lengthAdjust="spacing" textLength="194" x="336.5" y="457.1919">Ghi dist/openapi-bundled.yaml</text><polygon fill="#64748B" points="340.5,487.3906,330.5,491.3906,340.5,495.3906,336.5,491.3906" style="stroke:#64748B;stroke-width:1.0;"/><line style="stroke:#64748B;stroke-width:1.0;stroke-dasharray:2.0,2.0;" x1="334.5" x2="546.5" y1="491.3906" y2="491.3906"/><text fill="#000000" font-family="sans-serif" font-size="13" lengthAdjust="spacing" textLength="18" x="346.5" y="486.3247">OK</text><polygon fill="#64748B" points="68.5,516.5234,58.5,520.5234,68.5,524.5234,64.5,520.5234" style="stroke:#64748B;stroke-width:1.0;"/><line style="stroke:#64748B;stroke-width:1.0;stroke-dasharray:2.0,2.0;" x1="62.5" x2="328.5" y1="520.5234" y2="520.5234"/><text fill="#000000" font-family="sans-serif" font-size="13" lengthAdjust="spacing" textLength="35" x="74.5" y="515.4575">exit 0</text><line style="stroke:#64748B;stroke-width:1.0;" x1="57.5" x2="99.5" y1="549.6563" y2="549.6563"/><line style="stroke:#64748B;stroke-width:1.0;" x1="99.5" x2="99.5" y1="549.6563" y2="562.6563"/><line style="stroke:#64748B;stroke-width:1.0;" x1="58.5" x2="99.5" y1="562.6563" y2="562.6563"/><polygon fill="#64748B" points="68.5,558.6563,58.5,562.6563,68.5,566.6563,64.5,562.6563" style="stroke:#64748B;stroke-width:1.0;"/><text fill="#000000" font-family="sans-serif" font-size="13" lengthAdjust="spacing" textLength="143" x="64.5" y="544.5903">Ti&#7871;p t&#7909;c sang b&#432;&#7899;c lint</text><!--SRC=[TLB1RjD04BtlLumCXt98QKI0D0UaE8qhH168b0DIBflrDbx5cNNNQwY5aBZrX021X12NLbKlI4X8SB8FERZYFvOlOHqxnG7rilRilddpvit4Cu4HLNGE8twOS6IyhvHyCP2XL73jJkTkf-kI-3-GAuzSgNokQk30tRazR3U0ZwdIWec8edOfcqsLJD2lmLxNwtk3Ay1DrkrE_vRR9KGB7N9uEjZQXj-lFu9hgMoiPN62C37vPtZMVxW7Eh1n06qu4FPrumdt9GlJ6uH4V-d1ATLmz1sWCRZ3zRSw1GPxzvVlTRmEyahsKHfhFb-2l14XxX1QzrRm7iJ995AIyJZUL0bkZD5HDVEaaYuZZZGID-llPahdeJD6gtKbmT9venvSl3Fv6rPrn56h528fK1Dl1ArcnIRH6iabOYT9JNwicwvTL_o041hgvHzePVAtSF7UP0kiAiw2uYTEGPly0zepEnK4u9BSihl37l0ZeQ4znfV0xUQe7ZXBjecIrcS7NjcKofuIl1i8mC1atn12atyIOtIBKmciFCBYAy9KK0c-i5AHy33ci6-oSmtCP6ULoi3aPr6PVDpKqcXqLrYiW4FRRxRGyBmu0RJT2j3B6uIW-477Q4iokp9s-rXWCnP9ZIgTMMSkvr3gzaMiLnDhLOFqAyC1_ft7emTNERMrviT-MJeg7Jvd45DhzkJNTvD_OH2MOxQBIlu0]--></g></svg>