<?xml version="1.0" encoding="us-ascii" standalone="no"?><svg xmlns="http://www.w3.org/2000/svg" xmlns:xlink="http://www.w3.org/1999/xlink" contentStyleType="text/css" height="837px" preserveAspectRatio="none" style="width:708px;height:837px;background:#FFFFFF;" version="1.1" viewBox="0 0 708 837" width="708px" zoomAndPan="magnify"><defs/><g><text fill="#000000" font-family="sans-serif" font-size="14" font-weight="bold" lengthAdjust="spacing" textLength="255" x="225.5" y="27.9951">UC03 &#8212; Qu&#7843;n l&#253; module registry</text><rect fill="none" height="221.8672" style="stroke:#000000;stroke-width:1.5;" width="506.5" x="10" y="517.7188"/><line style="stroke:#181818;stroke-width:0.5;stroke-dasharray:5.0,5.0;" x1="63" x2="63" y1="118.5938" y2="756.5859"/><line style="stroke:#181818;stroke-width:0.5;stroke-dasharray:5.0,5.0;" x1="244.5" x2="244.5" y1="118.5938" y2="756.5859"/><line style="stroke:#181818;stroke-width:0.5;stroke-dasharray:5.0,5.0;" x1="468.5" x2="468.5" y1="118.5938" y2="756.5859"/><line style="stroke:#181818;stroke-width:0.5;stroke-dasharray:5.0,5.0;" x1="640" x2="640" y1="118.5938" y2="756.5859"/><text fill="#000000" font-family="sans-serif" font-size="14" lengthAdjust="spacing" textLength="80" x="20" y="115.292">Ng&#432;&#7901;i d&#249;ng</text><ellipse cx="63" cy="50.7969" fill="#E2E2F0" rx="8" ry="8" style="stroke:#181818;stroke-width:0.5;"/><path d="M63,58.7969 L63,85.7969 M50,66.7969 L76,66.7969 M63,85.7969 L50,100.7969 M63,85.7969 L76,100.7969 " fill="none" style="stroke:#181818;stroke-width:0.5;"/><text fill="#000000" font-family="sans-serif" font-size="14" lengthAdjust="spacing" textLength="80" x="20" y="768.5811">Ng&#432;&#7901;i d&#249;ng</text><ellipse cx="63" cy="780.3828" fill="#E2E2F0" rx="8" ry="8" style="stroke:#181818;stroke-width:0.5;"/><path d="M63,788.3828 L63,815.3828 M50,796.3828 L76,796.3828 M63,815.3828 L50,830.3828 M63,815.3828 L76,830.3828 " fill="none" style="stroke:#181818;stroke-width:0.5;"/><rect fill="#F8FAFC" height="30.2969" rx="2.5" ry="2.5" style="stroke:#94A3B8;stroke-width:0.5;" width="77" x="206.5" y="87.2969"/><text fill="#000000" font-family="sans-serif" font-size="14" lengthAdjust="spacing" textLength="63" x="213.5" y="107.292">Frontend</text><rect fill="#F8FAFC" height="30.2969" rx="2.5" ry="2.5" style="stroke:#94A3B8;stroke-width:0.5;" width="77" x="206.5" y="755.5859"/><text fill="#000000" font-family="sans-serif" font-size="14" lengthAdjust="spacing" textLength="63" x="213.5" y="775.5811">Frontend</text><rect fill="#F8FAFC" height="30.2969" rx="2.5" ry="2.5" style="stroke:#94A3B8;stroke-width:0.5;" width="75" x="431.5" y="87.2969"/><text fill="#000000" font-family="sans-serif" font-size="14" lengthAdjust="spacing" textLength="61" x="438.5" y="107.292">Backend</text><rect fill="#F8FAFC" height="30.2969" rx="2.5" ry="2.5" style="stroke:#94A3B8;stroke-width:0.5;" width="75" x="431.5" y="755.5859"/><text fill="#000000" font-family="sans-serif" font-size="14" lengthAdjust="spacing" textLength="61" x="438.5" y="775.5811">Backend</text><rect fill="#F8FAFC" height="46.5938" rx="2.5" ry="2.5" style="stroke:#94A3B8;stroke-width:0.5;" width="124" x="578" y="71"/><text fill="#000000" font-family="sans-serif" font-size="14" lengthAdjust="spacing" textLength="110" x="585" y="90.9951">module_registry</text><text fill="#000000" font-family="sans-serif" font-size="14" lengthAdjust="spacing" textLength="35" x="622.5" y="107.292">.yaml</text><rect fill="#F8FAFC" height="46.5938" rx="2.5" ry="2.5" style="stroke:#94A3B8;stroke-width:0.5;" width="124" x="578" y="755.5859"/><text fill="#000000" font-family="sans-serif" font-size="14" lengthAdjust="spacing" textLength="110" x="585" y="775.5811">module_registry</text><text fill="#000000" font-family="sans-serif" font-size="14" lengthAdjust="spacing" textLength="35" x="622.5" y="791.8779">.yaml</text><polygon fill="#64748B" points="233,145.7266,243,149.7266,233,153.7266,237,149.7266" style="stroke:#64748B;stroke-width:1.0;"/><line style="stroke:#64748B;stroke-width:1.0;" x1="63" x2="239" y1="149.7266" y2="149.7266"/><text fill="#000000" font-family="sans-serif" font-size="13" lengthAdjust="spacing" textLength="126" x="70" y="144.6606">Truy c&#7853;p dashboard</text><polygon fill="#64748B" points="457,174.8594,467,178.8594,457,182.8594,461,178.8594" style="stroke:#64748B;stroke-width:1.0;"/><line style="stroke:#64748B;stroke-width:1.0;" x1="245" x2="463" y1="178.8594" y2="178.8594"/><text fill="#000000" font-family="sans-serif" font-size="13" lengthAdjust="spacing" textLength="88" x="252" y="173.7935">GET /modules</text><polygon fill="#64748B" points="628,203.9922,638,207.9922,628,211.9922,632,207.9922" style="stroke:#64748B;stroke-width:1.0;"/><line style="stroke:#64748B;stroke-width:1.0;" x1="469" x2="634" y1="207.9922" y2="207.9922"/><text fill="#000000" font-family="sans-serif" font-size="13" lengthAdjust="spacing" textLength="147" x="476" y="202.9263">&#272;&#7885;c danh s&#225;ch module</text><polygon fill="#64748B" points="480,233.125,470,237.125,480,241.125,476,237.125" style="stroke:#64748B;stroke-width:1.0;"/><line style="stroke:#64748B;stroke-width:1.0;stroke-dasharray:2.0,2.0;" x1="474" x2="639" y1="237.125" y2="237.125"/><text fill="#000000" font-family="sans-serif" font-size="13" lengthAdjust="spacing" textLength="109" x="486" y="232.0591">{ modules: [...] }</text><polygon fill="#64748B" points="256,307.6563,246,311.6563,256,315.6563,252,311.6563" style="stroke:#64748B;stroke-width:1.0;"/><line style="stroke:#64748B;stroke-width:1.0;stroke-dasharray:2.0,2.0;" x1="250" x2="468" y1="311.6563" y2="311.6563"/><text fill="#000000" font-family="sans-serif" font-size="13" lengthAdjust="spacing" textLength="46" x="262" y="261.1919">200 OK</text><text fill="#000000" font-family="sans-serif" font-size="13" lengthAdjust="spacing" textLength="181" x="262" y="276.3247">{ modules: [{ name, status,</text><text fill="#000000" font-family="sans-serif" font-size="13" lengthAdjust="spacing" textLength="172" x="270" y="291.4575">file_count, endpoint_count,</text><text fill="#000000" font-family="sans-serif" font-size="13" lengthAdjust="spacing" textLength="121" x="270" y="306.5903">last_import_at }] }</text><polygon fill="#64748B" points="74,336.7891,64,340.7891,74,344.7891,70,340.7891" style="stroke:#64748B;stroke-width:1.0;"/><line style="stroke:#64748B;stroke-width:1.0;stroke-dasharray:2.0,2.0;" x1="68" x2="244" y1="340.7891" y2="340.7891"/><text fill="#000000" font-family="sans-serif" font-size="13" lengthAdjust="spacing" textLength="138" x="80" y="335.7231">Hi&#7875;n th&#7883; b&#7843;ng module</text><polygon fill="#64748B" points="233,381.0547,243,385.0547,233,389.0547,237,385.0547" style="stroke:#64748B;stroke-width:1.0;"/><line style="stroke:#64748B;stroke-width:1.0;" x1="63" x2="239" y1="385.0547" y2="385.0547"/><text fill="#000000" font-family="sans-serif" font-size="13" lengthAdjust="spacing" textLength="96" x="70" y="364.856">B&#7845;m "Activate"</text><text fill="#000000" font-family="sans-serif" font-size="13" lengthAdjust="spacing" textLength="112" x="70" y="379.9888">tr&#234;n module draft</text><polygon fill="#64748B" points="457,425.3203,467,429.3203,457,433.3203,461,429.3203" style="stroke:#64748B;stroke-width:1.0;"/><line style="stroke:#64748B;stroke-width:1.0;" x1="245" x2="463" y1="429.3203" y2="429.3203"/><text fill="#000000" font-family="sans-serif" font-size="13" lengthAdjust="spacing" textLength="152" x="252" y="409.1216">POST /modules/activate</text><text fill="#000000" font-family="sans-serif" font-size="13" lengthAdjust="spacing" textLength="149" x="252" y="424.2544">{ module: "&lt;name&gt;" }</text><polygon fill="#64748B" points="628,469.5859,638,473.5859,628,477.5859,632,473.5859" style="stroke:#64748B;stroke-width:1.0;"/><line style="stroke:#64748B;stroke-width:1.0;" x1="469" x2="634" y1="473.5859" y2="473.5859"/><text fill="#000000" font-family="sans-serif" font-size="13" lengthAdjust="spacing" textLength="102" x="476" y="453.3872">C&#7853;p nh&#7853;t status</text><text fill="#000000" font-family="sans-serif" font-size="13" lengthAdjust="spacing" textLength="87" x="476" y="468.52">draft &#8594; active</text><polygon fill="#64748B" points="480,498.7188,470,502.7188,480,506.7188,476,502.7188" style="stroke:#64748B;stroke-width:1.0;"/><line style="stroke:#64748B;stroke-width:1.0;stroke-dasharray:2.0,2.0;" x1="474" x2="639" y1="502.7188" y2="502.7188"/><text fill="#000000" font-family="sans-serif" font-size="13" lengthAdjust="spacing" textLength="18" x="486" y="497.6528">OK</text><path d="M10,517.7188 L74,517.7188 L74,524.8516 L64,534.8516 L10,534.8516 L10,517.7188 " fill="#EEEEEE" style="stroke:#000000;stroke-width:1.5;"/><rect fill="none" height="221.8672" style="stroke:#000000;stroke-width:1.5;" width="506.5" x="10" y="517.7188"/><text fill="#000000" font-family="sans-serif" font-size="13" font-weight="bold" lengthAdjust="spacing" textLength="19" x="25" y="530.7856">alt</text><text fill="#000000" font-family="sans-serif" font-size="11" font-weight="bold" lengthAdjust="spacing" textLength="147" x="89" y="529.9292">[K&#237;ch ho&#7841;t th&#224;nh c&#244;ng]</text><polygon fill="#64748B" points="256,551.9844,246,555.9844,256,559.9844,252,555.9844" style="stroke:#64748B;stroke-width:1.0;"/><line style="stroke:#64748B;stroke-width:1.0;stroke-dasharray:2.0,2.0;" x1="250" x2="468" y1="555.9844" y2="555.9844"/><text fill="#000000" font-family="sans-serif" font-size="13" lengthAdjust="spacing" textLength="46" x="262" y="550.9185">200 OK</text><polygon fill="#64748B" points="457,581.1172,467,585.1172,457,589.1172,461,585.1172" style="stroke:#64748B;stroke-width:1.0;"/><line style="stroke:#64748B;stroke-width:1.0;" x1="245" x2="463" y1="585.1172" y2="585.1172"/><text fill="#000000" font-family="sans-serif" font-size="13" lengthAdjust="spacing" textLength="88" x="252" y="580.0513">GET /modules</text><polygon fill="#64748B" points="256,610.25,246,614.25,256,618.25,252,614.25" style="stroke:#64748B;stroke-width:1.0;"/><line style="stroke:#64748B;stroke-width:1.0;stroke-dasharray:2.0,2.0;" x1="250" x2="468" y1="614.25" y2="614.25"/><text fill="#000000" font-family="sans-serif" font-size="13" lengthAdjust="spacing" textLength="200" x="262" y="609.1841">Danh s&#225;ch module &#273;&#227; c&#7853;p nh&#7853;t</text><polygon fill="#64748B" points="74,639.3828,64,643.3828,74,647.3828,70,643.3828" style="stroke:#64748B;stroke-width:1.0;"/><line style="stroke:#64748B;stroke-width:1.0;stroke-dasharray:2.0,2.0;" x1="68" x2="244" y1="643.3828" y2="643.3828"/><text fill="#000000" font-family="sans-serif" font-size="13" lengthAdjust="spacing" textLength="158" x="80" y="638.3169">Hi&#7875;n th&#7883; tr&#7841;ng th&#225;i active</text><line style="stroke:#000000;stroke-width:1.0;stroke-dasharray:2.0,2.0;" x1="10" x2="516.5" y1="652.3828" y2="652.3828"/><text fill="#000000" font-family="sans-serif" font-size="11" font-weight="bold" lengthAdjust="spacing" textLength="125" x="15" y="662.5933">[K&#237;ch ho&#7841;t th&#7845;t b&#7841;i]</text><polygon fill="#64748B" points="256,698.4531,246,702.4531,256,706.4531,252,702.4531" style="stroke:#64748B;stroke-width:1.0;"/><line style="stroke:#64748B;stroke-width:1.0;stroke-dasharray:2.0,2.0;" x1="250" x2="468" y1="702.4531" y2="702.4531"/><text fill="#000000" font-family="sans-serif" font-size="13" lengthAdjust="spacing" textLength="157" x="262" y="682.2544">500 Internal Server Error</text><text fill="#000000" font-family="sans-serif" font-size="13" lengthAdjust="spacing" textLength="89" x="262" y="697.3872">{ detail: "..." }</text><polygon fill="#64748B" points="74,727.5859,64,731.5859,74,735.5859,70,731.5859" style="stroke:#64748B;stroke-width:1.0;"/><line style="stroke:#64748B;stroke-width:1.0;stroke-dasharray:2.0,2.0;" x1="68" x2="244" y1="731.5859" y2="731.5859"/><text fill="#000000" font-family="sans-serif" font-size="13" lengthAdjust="spacing" textLength="137" x="80" y="726.52">Hi&#7875;n th&#7883; th&#244;ng b&#225;o l&#7895;i</text><!--SRC=[VLFFQnD15BxlN_5OhsaQRQenI26RPbKAfjhsP2HCTgVPePkPEFDI3QKW25v4K14y2ORYHIXuy6A2fot-7zk_nBURNVEhzRJiVD-yzttVUsEEXEmppNgmnvyFkFHuJMlregv2fU76xVATSiMnp0h9KIyTfNskCsBTsTvit9mZxZADmXDz9j5Xtb5Ngu7qCx9RSMjk_HhoVDMxvTg6Kx4i51XoEAYNDk3orITuF8Z7PnB2w3Vqb3yWIFEkCAY7biKyf9lse-wV7_7aYm0_-YMxDZ031uPhgp_h1BQhbKGk_HHs6ujWeZh7d2LishMTTst9uf3rmfJwv9-If1-iRL7XAkphmH2yU7pU1v-PeAEOzYstaS0EmVSR-x0-BMei9ptEwrJXudqyUUVHFHc0YKPUa9csSWgiPMLECiHKuMcnM7m6fscnJCEjKWcQEoqvppe1oNgy00OP3aoX9G4E1JdpQ5fO0FBVLq9Yzf_08JFO5hs-qjXc2AT94tVQ935SXGSYdhoMW44yUGkTP53TNF1294uy_jO3k-QXE6R8xPP47NsN-KHzpGvnBgBTvjuietMMtPgvgO9zB_6oPPEWbGphQVGoe0zcPbioRG6NRpv2MkwAG9ixj50XmavqJh47AXwFa9n5NsaKNlHJTYs0bOJfx9h9Bf2tb-S95n-Yisn9fagpIbT7YvhKKBOaPoHo1pmqV5ajvOp984PYKS0cgNr8-wyb2-bTwsEQJOFUlav2zJao4LAej4T9elzL4YHHG2SQAGZZoMTXqTvOVm40]--></g></svg>