<?xml version="1.0" encoding="us-ascii" standalone="no"?><svg xmlns="http://www.w3.org/2000/svg" xmlns:xlink="http://www.w3.org/1999/xlink" contentStyleType="text/css" height="836px" preserveAspectRatio="none" style="width:896px;height:836px;background:#FFFFFF;" version="1.1" viewBox="0 0 896 836" width="896px" zoomAndPan="magnify"><defs/><g><text fill="#000000" font-family="sans-serif" font-size="14" font-weight="bold" lengthAdjust="spacing" textLength="187" x="355.5" y="27.9951">UC07 &#8212; Xem t&#224;i li&#7879;u API</text><rect fill="none" height="294.2656" style="stroke:#000000;stroke-width:1.5;" width="879" x="10" y="193.8594"/><rect fill="none" height="147.7969" style="stroke:#000000;stroke-width:1.5;" width="606" x="10" y="502.125"/><line style="stroke:#181818;stroke-width:0.5;stroke-dasharray:5.0,5.0;" x1="63" x2="63" y1="118.5938" y2="755.4531"/><line style="stroke:#181818;stroke-width:0.5;stroke-dasharray:5.0,5.0;" x1="331" x2="331" y1="118.5938" y2="755.4531"/><line style="stroke:#181818;stroke-width:0.5;stroke-dasharray:5.0,5.0;" x1="610.5" x2="610.5" y1="118.5938" y2="755.4531"/><line style="stroke:#181818;stroke-width:0.5;stroke-dasharray:5.0,5.0;" x1="833" x2="833" y1="118.5938" y2="755.4531"/><text fill="#000000" font-family="sans-serif" font-size="14" lengthAdjust="spacing" textLength="80" x="20" y="115.292">Ng&#432;&#7901;i d&#249;ng</text><ellipse cx="63" cy="50.7969" fill="#E2E2F0" rx="8" ry="8" style="stroke:#181818;stroke-width:0.5;"/><path d="M63,58.7969 L63,85.7969 M50,66.7969 L76,66.7969 M63,85.7969 L50,100.7969 M63,85.7969 L76,100.7969 " fill="none" style="stroke:#181818;stroke-width:0.5;"/><text fill="#000000" font-family="sans-serif" font-size="14" lengthAdjust="spacing" textLength="80" x="20" y="767.4482">Ng&#432;&#7901;i d&#249;ng</text><ellipse cx="63" cy="779.25" fill="#E2E2F0" rx="8" ry="8" style="stroke:#181818;stroke-width:0.5;"/><path d="M63,787.25 L63,814.25 M50,795.25 L76,795.25 M63,814.25 L50,829.25 M63,814.25 L76,829.25 " fill="none" style="stroke:#181818;stroke-width:0.5;"/><rect fill="#F8FAFC" height="46.5938" rx="2.5" ry="2.5" style="stroke:#94A3B8;stroke-width:0.5;" width="170" x="246" y="71"/><text fill="#000000" font-family="sans-serif" font-size="14" lengthAdjust="spacing" textLength="63" x="299.5" y="90.9951">Frontend</text><text fill="#000000" font-family="sans-serif" font-size="14" lengthAdjust="spacing" textLength="156" x="253" y="107.292">(Swagger UI + Fuse.js)</text><rect fill="#F8FAFC" height="46.5938" rx="2.5" ry="2.5" style="stroke:#94A3B8;stroke-width:0.5;" width="170" x="246" y="754.4531"/><text fill="#000000" font-family="sans-serif" font-size="14" lengthAdjust="spacing" textLength="63" x="299.5" y="774.4482">Frontend</text><text fill="#000000" font-family="sans-serif" font-size="14" lengthAdjust="spacing" textLength="156" x="253" y="790.7451">(Swagger UI + Fuse.js)</text><rect fill="#F8FAFC" height="30.2969" rx="2.5" ry="2.5" style="stroke:#94A3B8;stroke-width:0.5;" width="75" x="573.5" y="87.2969"/><text fill="#000000" font-family="sans-serif" font-size="14" lengthAdjust="spacing" textLength="61" x="580.5" y="107.292">Backend</text><rect fill="#F8FAFC" height="30.2969" rx="2.5" ry="2.5" style="stroke:#94A3B8;stroke-width:0.5;" width="75" x="573.5" y="754.4531"/><text fill="#000000" font-family="sans-serif" font-size="14" lengthAdjust="spacing" textLength="61" x="580.5" y="774.4482">Backend</text><rect fill="#F8FAFC" height="30.2969" rx="2.5" ry="2.5" style="stroke:#94A3B8;stroke-width:0.5;" width="92" x="787" y="87.2969"/><text fill="#000000" font-family="sans-serif" font-size="14" lengthAdjust="spacing" textLength="78" x="794" y="107.292">File System</text><rect fill="#F8FAFC" height="30.2969" rx="2.5" ry="2.5" style="stroke:#94A3B8;stroke-width:0.5;" width="92" x="787" y="754.4531"/><text fill="#000000" font-family="sans-serif" font-size="14" lengthAdjust="spacing" textLength="78" x="794" y="774.4482">File System</text><polygon fill="#64748B" points="319,145.7266,329,149.7266,319,153.7266,323,149.7266" style="stroke:#64748B;stroke-width:1.0;"/><line style="stroke:#64748B;stroke-width:1.0;" x1="63" x2="325" y1="149.7266" y2="149.7266"/><text fill="#000000" font-family="sans-serif" font-size="13" lengthAdjust="spacing" textLength="153" x="70" y="144.6606">Truy c&#7853;p trang /swagger</text><polygon fill="#64748B" points="599,174.8594,609,178.8594,599,182.8594,603,178.8594" style="stroke:#64748B;stroke-width:1.0;"/><line style="stroke:#64748B;stroke-width:1.0;" x1="331" x2="605" y1="178.8594" y2="178.8594"/><text fill="#000000" font-family="sans-serif" font-size="13" lengthAdjust="spacing" textLength="130" x="338" y="173.7935">GET /bundle-content</text><path d="M10,193.8594 L74,193.8594 L74,200.9922 L64,210.9922 L10,210.9922 L10,193.8594 " fill="#EEEEEE" style="stroke:#000000;stroke-width:1.5;"/><rect fill="none" height="294.2656" style="stroke:#000000;stroke-width:1.5;" width="879" x="10" y="193.8594"/><text fill="#000000" font-family="sans-serif" font-size="13" font-weight="bold" lengthAdjust="spacing" textLength="19" x="25" y="206.9263">alt</text><text fill="#000000" font-family="sans-serif" font-size="11" font-weight="bold" lengthAdjust="spacing" textLength="136" x="89" y="206.0698">[Bundle ch&#432;a t&#7891;n t&#7841;i]</text><polygon fill="#64748B" points="342,228.125,332,232.125,342,236.125,338,232.125" style="stroke:#64748B;stroke-width:1.0;"/><line style="stroke:#64748B;stroke-width:1.0;stroke-dasharray:2.0,2.0;" x1="336" x2="610" y1="232.125" y2="232.125"/><text fill="#000000" font-family="sans-serif" font-size="13" lengthAdjust="spacing" textLength="94" x="348" y="227.0591">404 Not Found</text><polygon fill="#64748B" points="74,272.3906,64,276.3906,74,280.3906,70,276.3906" style="stroke:#64748B;stroke-width:1.0;"/><line style="stroke:#64748B;stroke-width:1.0;stroke-dasharray:2.0,2.0;" x1="68" x2="330" y1="276.3906" y2="276.3906"/><text fill="#000000" font-family="sans-serif" font-size="13" lengthAdjust="spacing" textLength="157" x="80" y="256.1919">Hi&#7875;n th&#7883; "Ch&#432;a c&#243; t&#224;i li&#7879;u</text><text fill="#000000" font-family="sans-serif" font-size="13" lengthAdjust="spacing" textLength="101" x="80" y="271.3247">H&#227;y build tr&#432;&#7899;c"</text><line style="stroke:#000000;stroke-width:1.0;stroke-dasharray:2.0,2.0;" x1="10" x2="889" y1="285.3906" y2="285.3906"/><text fill="#000000" font-family="sans-serif" font-size="11" font-weight="bold" lengthAdjust="spacing" textLength="101" x="15" y="295.6011">[Bundle t&#7891;n t&#7841;i]</text><polygon fill="#64748B" points="821,316.3281,831,320.3281,821,324.3281,825,320.3281" style="stroke:#64748B;stroke-width:1.0;"/><line style="stroke:#64748B;stroke-width:1.0;" x1="611" x2="827" y1="320.3281" y2="320.3281"/><text fill="#000000" font-family="sans-serif" font-size="13" lengthAdjust="spacing" textLength="198" x="618" y="315.2622">&#272;&#7885;c dist/openapi-bundled.yaml</text><polygon fill="#64748B" points="622,345.4609,612,349.4609,622,353.4609,618,349.4609" style="stroke:#64748B;stroke-width:1.0;"/><line style="stroke:#64748B;stroke-width:1.0;stroke-dasharray:2.0,2.0;" x1="616" x2="832" y1="349.4609" y2="349.4609"/><text fill="#000000" font-family="sans-serif" font-size="13" lengthAdjust="spacing" textLength="87" x="628" y="344.395">YAML content</text><polygon fill="#64748B" points="342,374.5938,332,378.5938,342,382.5938,338,378.5938" style="stroke:#64748B;stroke-width:1.0;"/><line style="stroke:#64748B;stroke-width:1.0;stroke-dasharray:2.0,2.0;" x1="336" x2="610" y1="378.5938" y2="378.5938"/><text fill="#000000" font-family="sans-serif" font-size="13" lengthAdjust="spacing" textLength="87" x="348" y="373.5278">YAML content</text><line style="stroke:#64748B;stroke-width:1.0;" x1="331" x2="373" y1="422.8594" y2="422.8594"/><line style="stroke:#64748B;stroke-width:1.0;" x1="373" x2="373" y1="422.8594" y2="435.8594"/><line style="stroke:#64748B;stroke-width:1.0;" x1="332" x2="373" y1="435.8594" y2="435.8594"/><polygon fill="#64748B" points="342,431.8594,332,435.8594,342,439.8594,338,435.8594" style="stroke:#64748B;stroke-width:1.0;"/><text fill="#000000" font-family="sans-serif" font-size="13" lengthAdjust="spacing" textLength="128" x="338" y="402.6606">Kh&#7903;i t&#7841;o Swagger UI</text><text fill="#000000" font-family="sans-serif" font-size="13" lengthAdjust="spacing" textLength="108" x="338" y="417.7935">v&#7899;i Fuse.js plugin</text><polygon fill="#64748B" points="74,476.125,64,480.125,74,484.125,70,480.125" style="stroke:#64748B;stroke-width:1.0;"/><line style="stroke:#64748B;stroke-width:1.0;stroke-dasharray:2.0,2.0;" x1="68" x2="330" y1="480.125" y2="480.125"/><text fill="#000000" font-family="sans-serif" font-size="13" lengthAdjust="spacing" textLength="175" x="80" y="459.9263">Render danh s&#225;ch endpoint</text><text fill="#000000" font-family="sans-serif" font-size="13" lengthAdjust="spacing" textLength="244" x="80" y="475.0591">(method, path, summary, description)</text><path d="M10,502.125 L80,502.125 L80,509.2578 L70,519.2578 L10,519.2578 L10,502.125 " fill="#EEEEEE" style="stroke:#000000;stroke-width:1.5;"/><rect fill="none" height="147.7969" style="stroke:#000000;stroke-width:1.5;" width="606" x="10" y="502.125"/><text fill="#000000" font-family="sans-serif" font-size="13" font-weight="bold" lengthAdjust="spacing" textLength="25" x="25" y="515.1919">opt</text><text fill="#000000" font-family="sans-serif" font-size="11" font-weight="bold" lengthAdjust="spacing" textLength="141" x="95" y="514.3354">[Ng&#432;&#7901;i d&#249;ng t&#236;m ki&#7871;m]</text><polygon fill="#64748B" points="319,536.3906,329,540.3906,319,544.3906,323,540.3906" style="stroke:#64748B;stroke-width:1.0;"/><line style="stroke:#64748B;stroke-width:1.0;" x1="63" x2="325" y1="540.3906" y2="540.3906"/><text fill="#000000" font-family="sans-serif" font-size="13" lengthAdjust="spacing" textLength="172" x="70" y="535.3247">Nh&#7853;p t&#7915; kh&#243;a v&#224;o &#244; search</text><line style="stroke:#64748B;stroke-width:1.0;" x1="331" x2="373" y1="584.6563" y2="584.6563"/><line style="stroke:#64748B;stroke-width:1.0;" x1="373" x2="373" y1="584.6563" y2="597.6563"/><line style="stroke:#64748B;stroke-width:1.0;" x1="332" x2="373" y1="597.6563" y2="597.6563"/><polygon fill="#64748B" points="342,593.6563,332,597.6563,342,601.6563,338,597.6563" style="stroke:#64748B;stroke-width:1.0;"/><text fill="#000000" font-family="sans-serif" font-size="13" lengthAdjust="spacing" textLength="128" x="338" y="564.4575">Fuse.js fuzzy search</text><text fill="#000000" font-family="sans-serif" font-size="13" lengthAdjust="spacing" textLength="266" x="338" y="579.5903">(operationId, path, summary, description)</text><polygon fill="#64748B" points="74,637.9219,64,641.9219,74,645.9219,70,641.9219" style="stroke:#64748B;stroke-width:1.0;"/><line style="stroke:#64748B;stroke-width:1.0;stroke-dasharray:2.0,2.0;" x1="68" x2="330" y1="641.9219" y2="641.9219"/><text fill="#000000" font-family="sans-serif" font-size="13" lengthAdjust="spacing" textLength="102" x="80" y="621.7231">Hi&#7875;n th&#7883; k&#7871;t qu&#7843;</text><text fill="#000000" font-family="sans-serif" font-size="13" lengthAdjust="spacing" textLength="111" x="80" y="636.856">theo &#273;&#7897; li&#234;n quan</text><polygon fill="#64748B" points="319,674.0547,329,678.0547,319,682.0547,323,678.0547" style="stroke:#64748B;stroke-width:1.0;"/><line style="stroke:#64748B;stroke-width:1.0;" x1="63" x2="325" y1="678.0547" y2="678.0547"/><text fill="#000000" font-family="sans-serif" font-size="13" lengthAdjust="spacing" textLength="117" x="70" y="672.9888">B&#7845;m v&#224;o endpoint</text><polygon fill="#64748B" points="74,733.4531,64,737.4531,74,741.4531,70,737.4531" style="stroke:#64748B;stroke-width:1.0;"/><line style="stroke:#64748B;stroke-width:1.0;stroke-dasharray:2.0,2.0;" x1="68" x2="330" y1="737.4531" y2="737.4531"/><text fill="#000000" font-family="sans-serif" font-size="13" lengthAdjust="spacing" textLength="103" x="80" y="702.1216">M&#7903; r&#7897;ng chi ti&#7871;t:</text><text fill="#000000" font-family="sans-serif" font-size="13" lengthAdjust="spacing" textLength="171" x="80" y="717.2544">parameters, request body,</text><text fill="#000000" font-family="sans-serif" font-size="13" lengthAdjust="spacing" textLength="195" x="80" y="732.3872">response schema, error codes</text><!--SRC=[XLGzRzD06DxlLxmA2nL9MqIW9GDI76Aee5L5MWcaBDVpOH-nxzoxSuix8J4m82GGB0WXMbKiV4YLoa8yCBZg_p2_XDTneYQjWCN3lSzxpvTjCn0offf6qEFR2PUCjxLMknqLAWsNRZINciiECHT0ZdhgAErnFGPsdDlNkrUdWEjKMy54JALrA1luMYNI6uFTPRVjTlu2dhxrPhDzpLacn0eRSjZiB2x1xsVlu26FmERx0a9HP2yIQA-l44APnPNQcdzwL6GV1NZvJ-dNW1hOD5oJ-8m2QgvMqdBfzUNbtYxrVQvXSmMkW9iOFl_4p8tMtExiKca3TqOpvzpC5QYlbnhBesgtHqX92urRU4yBDdII0Yk6tsEmcaeV5ap5IznkYN4GSwUx0GjRc5B86soapwAhq88pEWCMd1vHi4NsLk9pU208u1uqnXJDnIQiAGjk6JIEt6fKgcZ1NGpgEQu5HVOIQftHJIm_dawnB-_cXobi9IBqK6IPuWTM8pmqVABW8ZTIzrfmyhh8NZ7mXB4BAkQIng9H6V7cKng5fPhUI4tfyr5xzJvC3CvOE3UfeYa7zr3t9p5YLd3MM5_ke4WngGtYCF65FE_z0PQ6S8_A04n-m0B0WrW9QR7-YDj0UNM8gGtgO98eeZgjWySDqoAsGiavWd12L6nXzjt2yBv5C135y5U4dDDrhmLLrKNs5GP1VanX9zzNaFy0mwbcmOovYVh7oTvUEWQWCWnIqrB0od_a_Qlg0Ogpi9qKmyE-j05NSFAcoDvZvVaNYUTKLkwcnJl5y7DK2Pu4HMOOLh4Cq7WDPi02hAMCmBRwrSVCBTUc3hhyKHWBMyfBwtsfkOcLn5V9i817j0uS_p8QoqOhv0y0]--></g></svg>